<svg width="24" height="24" viewBox="0 0 24 24" fill="none" xmlns="http://www.w3.org/2000/svg">
<path d="M20.59 13.41L13.42 20.58C13.2 20.8 12.91 20.92 12.61 20.92C12.31 20.92 12.02 20.8 11.8 20.58L2.42 11.2C2.2 10.98 2.08 10.69 2.08 10.39V4.61C2.08 4.31 2.2 4.02 2.42 3.8C2.64 3.58 2.93 3.46 3.23 3.46H8.61C8.91 3.46 9.2 3.58 9.42 3.8L20.59 15.97C20.81 16.19 20.93 16.48 20.93 16.78C20.93 17.08 20.81 17.37 20.59 17.59L20.59 13.41Z" fill="#8b5cf6"/>
<circle cx="6.5" cy="6.5" r="1.5" fill="#ffffff"/>
</svg>